<svg version="1.1" id="Layer_1"
  xmlns="http://www.w3.org/2000/svg"
  xmlns:xlink="http://www.w3.org/1999/xlink" x="0px" y="0px" viewBox="0 0 24 24" style="enable-background:new 0 0 24 24;" xml:space="preserve">
  <style type="text/css">
	.st0{fill:#AC9F95;}
	.st1{fill:#6D534B;}
	.st2{fill:#CE1D1B;}
	.st3{fill:#A7121B;}
	.st4{fill:#D44835;}
  </style>
  <g>
    <path class="st0" d="M8.4,14.4c0.1-0.1,0.2-0.2,0.4-0.3c0.4-0.3,1.3-1,1.8-0.7c0.3,0.2,0.3,0.8,0.1,1c-0.3,0.6-1,1.1-1.4,1.6
		c-0.3,0.4-0.7,0.7-1.1,1.1c-0.6,0.6-1.2,1.2-1.8,1.8c0,0-3.9,3.3-4.9,4.1c-0.1,0.1-0.3,0.1-0.4,0c-0.1-0.1-0.1-0.3,0-0.4l4.1-4.9
		C6,16.8,6.8,16,7.6,15.2C7.9,15,8.1,14.7,8.4,14.4L8.4,14.4z"/>
    <path class="st1" d="M10.7,14.3c-0.1-0.2-0.3-0.3-0.4-0.5c-0.2-0.2-0.3-0.3-0.5-0.4c-0.4,0.2-0.8,0.5-1,0.7
		c-0.1,0.1-0.2,0.2-0.4,0.3c-0.3,0.3-0.5,0.6-0.8,0.8c-0.2,0.2-0.5,0.5-0.7,0.7c0,0,0,0.4,0.4,0.8c0.4,0.4,0.8,0.4,0.8,0.4
		c0,0,0.1-0.1,0.1-0.1c0.4-0.4,0.8-0.7,1.1-1.1C9.7,15.4,10.4,14.9,10.7,14.3C10.7,14.3,10.7,14.3,10.7,14.3L10.7,14.3z"/>
    <path class="st2" d="M7.7,15.2c-0.9-0.9-1.7-2-2.3-3c-0.3-0.4-0.6-1.3-0.7-2.2C4.6,9,5.3,8.1,6.3,8C7.5,7.9,9.4,8,10.7,9l4.3-4.3
		L19.4,9l-4.3,4.3c1,1.3,1,3.2,0.9,4.4c-0.1,1-1,1.7-2,1.6c-0.9-0.1-1.8-0.5-2.3-0.8C10.3,17.6,8.9,16.5,7.7,15.2L7.7,15.2z"/>
    <path class="st2" d="M9.9,9.6l5.1-5c0,0,1.1,1.4,1.9,2.2C17.7,7.7,19.4,9,19.4,9l-5,4.9c0,0-1.8,0.2-3.2-1.2
		C9.7,11.1,9.9,9.6,9.9,9.6L9.9,9.6z"/>
    <path class="st3" d="M12.4,10.6c0.2,1.6,0.8,2.6,1.1,2.8c0.5,0.4,1.2,0.2,1.6-0.1L19.4,9c0,0-1.7-1.3-2.5-2.1
		c-0.8-0.8-1.9-2.2-1.9-2.2l-2,1.9c-0.3,0.3-0.6,0.8-0.6,1.2C12.4,8.4,12.2,9.2,12.4,10.6z"/>
    <path class="st2" d="M14.7,1.3l-1.9,1.9c-0.4,0.3-0.4,0.6-0.4,0.6c-0.2,1.1,0.9,3.1,2.7,5c1.9,1.9,3.9,2.9,5,2.7c0,0,0.3,0,0.6-0.3
		l2-2L14.7,1.3z"/>
    <path class="st2" d="M22.7,9.3C22,10.2,19.4,9,17.2,6.8c-2.2-2.2-3.3-4.7-2.5-5.5c0.8-0.8,3.3,0.3,5.5,2.5
		C22.4,5.9,23.5,8.4,22.7,9.3L22.7,9.3z"/>
    <path class="st4" d="M10,9.7C10,9,8.6,8.1,7.7,8.8C7,9.5,7.3,10.8,7.7,11.4c0.4,0.8,1,1.5,1.8,1.8c0.8,0.4,1.9,0.2,1.5-0.6
		C10.5,11.7,10.1,11.2,10,9.7L10,9.7z"/>
    <path class="st4" d="M17.2,6.4C20.7,9.8,22,9.2,22.3,9c0.2-0.1,0.3-0.4,0.3-0.6c0.1-0.6-0.3-1.7-0.6-2.2c-0.8-1.4-1.5-2.2-3.7-3.8
		c-1-0.7-2.4-1.2-2.9-0.7C14.7,2,14.6,3.8,17.2,6.4z"/>
  </g>
</svg>